<svg xmlns="http://www.w3.org/2000/svg" viewBox="0 0 120 120" fill="none">
  <line x1="60" y1="4" x2="60" y2="116" stroke="currentColor" stroke-width="0.25" stroke-dasharray="2 2"/>
  <line x1="4" y1="60" x2="116" y2="60" stroke="currentColor" stroke-width="0.25" stroke-dasharray="2 2"/>

  <rect x="12" y="12" width="18" height="18" stroke="#c7d2fe" stroke-width="0.25" stroke-dasharray="2 2"/>
  <rect x="34" y="12" width="18" height="18" stroke="#a5b4fc" stroke-width="0.25" stroke-dasharray="2 2"/>
  <rect x="12" y="34" width="18" height="18" stroke="#818cf8" stroke-width="0.25" stroke-dasharray="2 2"/>
  <rect x="34" y="34" width="18" height="18" stroke="#6366f1" stroke-width="0.25" stroke-dasharray="2 2"/>

  <rect x="74" y="18" width="14" height="14" stroke="#ea580c" stroke-width="0.25" stroke-dasharray="2 2" transform="rotate(45 81 25)"/>
  <circle cx="81" cy="25" r="16" stroke="#ea580c" stroke-width="0.25" stroke-dasharray="2 3" opacity="0.5"/>
  <rect x="94" y="34" width="10" height="10" stroke="#f97316" stroke-width="0.25" stroke-dasharray="2 2" transform="rotate(45 99 39)"/>

  <polygon points="20,76 36,104 4,104" stroke="#22c55e" stroke-width="0.25" stroke-dasharray="2 2"/>
  <polygon points="42,86 52,104 32,104" stroke="#16a34a" stroke-width="0.25" stroke-dasharray="2 2"/>
  <polygon points="50,96 54,104 46,104" stroke="#15803d" stroke-width="0.25" stroke-dasharray="2 2"/>

  <polygon points="90,68 108,78 108,98 90,108 72,98 72,78" stroke="#d946ef" stroke-width="0.25" stroke-dasharray="2 2"/>
  <polygon points="90,76 100,82 100,94 90,100 80,94 80,82" stroke="#f0abfc" stroke-width="0.25" stroke-dasharray="2 2"/>
</svg>
